<?xml version="1.0" encoding="UTF-8" standalone="no"?><svg height="660" width="600" xmlns="http://www.w3.org/2000/svg" xmlns:xlink="http://www.w3.org/1999/xlink"><radialGradient id="a" cx="221.44487" cy="226.33101" gradientTransform="matrix(1.353218 0 0 1.348928 -77.62935 -85.74693)" gradientUnits="userSpaceOnUse" r="300"><stop offset="0" stop-color="#fff" stop-opacity=".313726"/><stop offset=".19" stop-color="#fff" stop-opacity=".25098"/><stop offset=".60000002" stop-color="#6b6b6b" stop-opacity=".12549"/><stop offset="1" stop-opacity=".12549"/></radialGradient><g><path d="m300 658.5s298.50001-112.32031 298.50001-397.77183v-259.22817h-597.00001v259.22817c0 285.45152 298.5 397.77183 298.5 397.77183z" fill="#2b5df2" fill-rule="evenodd"/><g fill="#fcef3c" stroke="#000"><path d="m231.5 1.5v209.21094h-230v49.97656c0 31.02869 3.5312242 60.00862 9.820312 87.02344h220.179688v276.35937c39.6991 23.48518 68.5 34.32617 68.5 34.32617s28.8009-10.84099 68.5-34.32617v-276.35937h220.17969c6.28909-27.01482 9.82031-55.99475 9.82031-87.02344v-49.97656h-230v-209.21094z" stroke-linecap="round" stroke-width="3"/><path d="m42.75 26.25v57.660156h31.382812v-57.660156zm116.11719 0v57.660156h31.38281v-57.660156zm250.88281 0v57.660156h31.38281v-57.660156zm116.11719 0v57.660156h31.38281v-57.660156zm-425.0586 49.919922v57.660158h31.38282v-57.660158zm367 0v57.660158h31.38282v-57.660158zm-425.05859 49.919918v57.66016h31.382812v-57.66016zm116.11719 0v57.66016h31.38281v-57.66016zm250.88281 0v57.66016h31.38281v-57.66016zm116.11719 0v57.66016h31.38281v-57.66016zm-465.61719 245.16016v57.66016h31.382812v-57.66016zm116.11719 0v57.66016h31.38281v-57.66016zm215.88281 0v57.66016h31.38281v-57.66016zm116.11719 0v57.66016h31.38281v-57.66016zm-443.300784 99.83984c8.371202 12.59633 17.287721 24.49145 26.566406 35.71094v-35.71094zm111.300784 0v57.66016h31.38281v-57.66016zm215.88281 0v57.66016h31.38281v-57.66016zm116.11719 0v35.71094c9.27868-11.21949 18.1952-23.11461 26.5664-35.71094z" stroke-width="2.5"/></g></g><path d="m300.00001 658.5s298.5-112.32031 298.5-397.77183v-259.22817h-597.00001v259.22817c0 285.45152 298.50001 397.77183 298.50001 397.77183z" fill="url(#a)" fill-rule="evenodd"/><path d="m299.99999 658.39735s-298.49999-112.30276-298.49999-397.70967v-259.1876487h596.99999v259.1876487c0 285.40691-298.5 397.70967-298.5 397.70967z" fill="none" stroke="#000" stroke-width="3"/></svg>